<?xml version="1.0" standalone="no"?>
<!DOCTYPE svg PUBLIC "-//W3C//DTD SVG 20010904//EN"
 "http://www.w3.org/TR/2001/REC-SVG-20010904/DTD/svg10.dtd">
<svg version="1.0" xmlns="http://www.w3.org/2000/svg"
 width="16.000000pt" height="16.000000pt" viewBox="0 0 16.000000 16.000000"
 preserveAspectRatio="xMidYMid meet">

<g transform="translate(0.000000,16.000000) scale(0.100000,-0.100000)"
fill="#000000" stroke="none">
<path d="M36 147 c-10 -7 -21 -32 -26 -55 -6 -35 -4 -44 14 -62 13 -12 26 -16
32 -11 15 15 58 25 50 12 -4 -6 -16 -11 -27 -11 -10 0 -19 -4 -19 -10 0 -17
25 -11 48 11 24 22 21 39 -6 40 -11 0 -13 2 -4 6 7 3 23 -3 34 -13 21 -18 21
-18 15 -1 -4 10 -7 30 -7 43 0 50 -63 81 -104 51z m78 -19 c26 -36 20 -55 -8
-29 -23 22 -25 22 -35 4 -8 -14 -11 -14 -11 -3 0 12 -4 11 -15 -4 -18 -24 -11
-35 18 -30 16 3 14 0 -8 -10 -16 -8 -34 -11 -40 -8 -5 3 -5 7 2 9 6 2 9 13 6
23 -3 11 2 31 11 45 21 32 59 33 80 3z"/>
</g>
</svg>
